# Blender v2.93.1 OBJ File: 'box.blend'
# www.blender.org
mtllib box.mtl
o Cube_Cube.001
v -1.000000 -1.000000 1.000000
v -1.000000 1.000000 1.000000
v -1.000000 -1.000000 -1.000000
v -1.000000 1.000000 -1.000000
v 1.000000 -1.000000 1.000000
v 1.000000 1.000000 1.000000
v 1.000000 -1.000000 -1.000000
v 1.000000 1.000000 -1.000000
v 0.252660 0.538593 0.504514
v 0.252660 0.538593 -0.504514
v 1.000000 1.000000 0.504514
v 1.000000 0.538593 0.504514
v 1.000000 0.538593 -0.504514
v 1.000000 1.000000 -0.504514
v 0.252660 1.000000 -0.504514
v 0.252660 1.000000 0.504514
vt 0.375000 0.000000
vt 0.625000 0.000000
vt 0.625000 0.250000
vt 0.375000 0.250000
vt 0.625000 0.500000
vt 0.375000 0.500000
vt 0.625000 0.750000
vt 0.375000 0.750000
vt 0.625000 0.561936
vt 0.567324 0.561936
vt 0.567324 0.688064
vt 0.625000 0.688064
vt 0.625000 1.000000
vt 0.375000 1.000000
vt 0.125000 0.500000
vt 0.125000 0.750000
vt 0.875000 0.500000
vt 0.875000 0.750000
vt 0.718418 0.688064
vt 0.718417 0.561936
vt 0.432676 0.000000
vt 0.375000 0.000000
vt 0.375000 0.250000
vt 0.432676 0.250000
vt 0.375000 0.343418
vt 0.432676 0.343418
vt 0.375000 0.906582
vt 0.375000 1.000000
vt 0.432676 1.000000
vt 0.432676 0.906582
vt 0.125000 0.500000
vt 0.125000 0.750000
vt 0.218418 0.750000
vt 0.218418 0.500000
vn -1.0000 0.0000 0.0000
vn 0.0000 0.0000 -1.0000
vn 1.0000 0.0000 0.0000
vn 0.0000 0.0000 1.0000
vn 0.0000 -1.0000 0.0000
vn 0.0000 1.0000 0.0000
usemtl None
s off
f 1/1/1 2/2/1 4/3/1 3/4/1
f 3/4/2 4/3/2 8/5/2 7/6/2
f 6/7/3 5/8/3 7/6/3 8/5/3 14/9/3 13/10/3 12/11/3 11/12/3
f 5/8/4 6/7/4 2/13/4 1/14/4
f 3/15/5 7/6/5 5/8/5 1/16/5
f 14/9/6 8/5/6 4/17/6 2/18/6 6/7/6 11/12/6 16/19/6 15/20/6
f 16/21/3 9/22/3 10/23/3 15/24/3
f 15/24/4 10/23/4 13/25/4 14/26/4
f 12/27/2 9/28/2 16/29/2 11/30/2
f 10/31/6 9/32/6 12/33/6 13/34/6
